# xmcd CD database file
# 
# Track frame offsets:
# 	150
# 	19077
# 	34152
# 	49570
# 	63420
# 	78322
# 	98765
# 	114242
# 	130667
# 	151162
# 	170567
# 	191457
# 
# Disc length: 2721 seconds
# 
# Submitted via: Nero 5.5.9.0
# 
# Revision: 0
# Processed by: cddbd v1.4PL0 Copyright (c) Steve Scherf et al.
#
DISCID=8a0a9f0c
DTITLE=Cooder Graw - Shifting Gears
DYEAR=1900
DGENRE=
TTITLE0=Shifting Gears
TTITLE1=New Dress
TTITLE2=King of the Dairy Queen
TTITLE3=Better Days
TTITLE4=God Only Knows
TTITLE5=Any Old Girl
TTITLE6=Wicked Witch of the West
TTITLE7=This Hurt
TTITLE8=County Colors
TTITLE9=The Legend of Millie Stacey
TTITLE10=Junior's in the Yard
TTITLE11=Willie's Guitar
EXTD=
EXTT0=
EXTT1=
EXTT2=
EXTT3=
EXTT4=
EXTT5=
EXTT6=
EXTT7=
EXTT8=
EXTT9=
EXTT10=
EXTT11=
PLAYORDER=
